<?xml version="1.0" encoding="iso-8859-1"?>
<!-- Uploaded to: SVG Repo, www.svgrepo.com, Generator: SVG Repo Mixer Tools -->
<svg fill="#000000" height="800px" width="800px" version="1.1" id="Layer_1" xmlns="http://www.w3.org/2000/svg" xmlns:xlink="http://www.w3.org/1999/xlink" 
	 viewBox="0 0 512 512" xml:space="preserve">
<g>
	<g>
		<path d="M353.178,91.779h-77.512v-6.556c0-25.304,20.586-45.89,45.89-45.89V0c-46.992,0-85.224,38.231-85.224,85.224v6.556
			h-77.512c-58.475,0-106.047,47.573-106.047,106.047c0,13.456,2.532,26.328,7.129,38.178h392.194
			c4.597-11.85,7.129-24.721,7.129-38.178C459.226,139.352,411.654,91.779,353.178,91.779z"/>
	</g>
</g>
<g>
	<g>
		<path d="M78.997,275.338v41.412h0c0,61.516,30.155,114.727,87.206,153.882c41.691,28.614,83.09,39.617,84.833,40.072L256,512
			l4.964-1.295c1.742-0.455,43.141-11.458,84.833-40.072c57.051-39.156,87.206-92.367,87.206-153.882v-41.412H78.997z"/>
	</g>
</g>
</svg>